<?xml version="1.0" encoding="UTF-8"?>
<svg id="Layer_1" xmlns="http://www.w3.org/2000/svg" version="1.1" xmlns:xlink="http://www.w3.org/1999/xlink" viewBox="0 0 1298.67 314.67">
  <!-- Generator: Adobe Illustrator 29.4.0, SVG Export Plug-In . SVG Version: 2.1.0 Build 152)  -->
  <defs>
    <style>
      .st0 {
        fill: url(#linear-gradient);
        isolation: isolate;
        opacity: .9;
      }
    </style>
    <linearGradient id="linear-gradient" x1="101.72" y1="1101.56" x2="120.28" y2="674" gradientTransform="translate(539.04 1091.67) scale(1 -1)" gradientUnits="userSpaceOnUse">
      <stop offset="0" stop-color="#f2f2f2"/>
      <stop offset=".17" stop-color="#fff1cd"/>
      <stop offset=".38" stop-color="#fee9ac" stop-opacity=".98"/>
      <stop offset=".51" stop-color="#fad17c" stop-opacity=".96"/>
      <stop offset=".66" stop-color="#f7ba4f" stop-opacity=".93"/>
      <stop offset=".79" stop-color="#f4aa2f" stop-opacity=".91"/>
      <stop offset=".89" stop-color="#f3a01b" stop-opacity=".9"/>
      <stop offset=".97" stop-color="#f39d14" stop-opacity=".9"/>
    </linearGradient>
  </defs>
  <path class="st0" d="M379.42,84.32h-50.82l.65,145.26h50.82v-41.14h-21.55c-2.4,0-5.93-3.56-6.07-6.15,1.29-15.33-1.86-33.88-.06-48.83.29-2.42,2.57-4.84,2.57-5.13,0-1.74,73.69-1.63,73.69-1.63,6.09,1.1,10.55-.22,11.26,7.39l-.32,153.98c-1.22,3.32-4.09,5.71-7.7,5.8-36.84-2.08-76.03,3.3-112.59.6-32.17-2.37-57.63-28.92-60.14-60.74l-.03-156.21c2.05-30.57,26.36-55.93,56.93-58.81l117.6.17c3.88,1.22,5.81,3.89,6.27,7.89,2.64,23.53-2,51.84.03,75.88-.61,6.38-4.3,6.97-9.98,7.39-11.03.79-30.27.94-41.18-.03-2.91-.27-6.4-.88-7.97-3.61-.25-.44-1.37-3.54-1.37-3.78v-18.32h-.02l-.02.02ZM166.5,239.86l-3.88-16.04-54.25.06c-.59.1-.69.56-.93,1.01-.42.81-3.89,14.45-3.34,14.97,5.93-.43,11.41-.31,12.22,6.75,1.01,8.87,1,32.23,0,41.14-.47,4.24-2.34,6.6-6.73,6.78-26.29-1.89-55.84,2.4-81.75,0-6.96-.65-7.02-5.19-7.4-11.25-.49-7.52-.98-32.84.98-38.92,2.11-6.51,9.8-4.02,15.1-4.52l46.35-164.2c-6.69-.46-12.38.46-13.42-7.77s-.96-31.03-.07-39.77c.56-5.33,2.66-7.57,8-8.07,28.3-2.64,60.7,2.02,89.43.03,4.78.49,7,2.26,8.81,6.61l59.83,212.1c.2.86.72.95,1.47,1.1,5.04.96,12.6-2.5,14.2,5.1,2.54,12.06-1.31,30.67.3,43.43-.43,3.59-2.5,5.67-6.11,6.1-27.12-1.9-57.58,2.47-84.31.01-4.84-.44-6.27-3.56-6.72-8.07-.89-8.94-.98-30.32.07-39.13.91-7.68,5.39-7.82,12.15-7.47v.02h0ZM146.56,162.1l-11.91-50.78-11.26,50.78h23.17ZM609.7,83.68h-65.61v39.85h78.8c3.79,0,5.19,5.71,5.45,8.69,1.05,11.64,1.03,33.98.03,45.64-.32,3.76-2.21,9.3-6.77,9.3h-77.51v44.34h66.9c.28-4.45-.35-11.94,5.11-13.23,4.47-1.05,28.63-.9,33.83-.29,4.48.53,5.78,4,6.11,8.03,1.66,19.53-1.31,41.33,0,61.11-.58,6.52-3.25,7.59-9.32,8.04h-169.87c-5.41-.54-8.15-1.66-8.69-7.4-1.27-13.54.87-29.18.17-42.94,1.34-6.65,10.03-4.46,10.16-5.34V75.32c-4.7.44-9.25-.21-10.26-5.5,1.12-13.53-1.64-29.86-.06-43.04.63-5.17,4.04-6.36,8.67-6.75h167.94c5.61.41,8.76,1.25,9.32,7.39,1.86,19.98-1.47,42.77,0,63.05-.41,4.13-1.89,6.23-6.14,6.72-10.28,1.17-22.79-.75-33.32-.14-5.98-2.24-5.03-8.08-4.96-13.36h.02ZM1014.96,83.68h-65.61v39.85h78.8c1.83,0,5.12,3.93,4.84,6.09-1.15,16.16,1.48,34.27,0,50.17-.15,1.64-.29,3.09-1.3,4.48-.67.94-3.96,2.88-4.84,2.88h-77.51v44.34h66.9c-.14-5-.64-11.25,4.96-13.36,10.52.63,23.04-1.31,33.31-.14,5.63.64,6.38,4.27,6.77,9.3,1.47,18.8-1.13,39.49-.03,58.5-.5,5.48-2.12,8.7-8.03,9.33l-171.78.02c-5.95-.53-7.94-2.98-8.58-8.78-1-9.17-.91-28.55-.07-37.84.67-7.47,3.42-9.29,10.92-8.69V75.32c-7.53.79-10.25-1.26-10.92-8.69-.86-9.5-.86-27.76,0-37.26.64-7.13,2.94-8.85,9.94-9.36l168.55.03c5.1.51,7.46,2.14,8.05,7.38,2.18,19.35-1.64,42.6.02,62.38.02,3.69-2.4,6.94-6.13,7.38-5.89.69-27.78.82-33.31-.16-6.27-1.12-4.91-8.54-4.98-13.34h.03ZM1173.83,98.46c1.96-6.91,4.17-14.41,6.97-21.01,6.25-14.74,16.71-36.78,24.86-50.36,3.09-5.14,4.62-6.54,10.92-7.09,12.74-1.09,36.84-1.09,49.58,0,7.1.6,8.82,3.07,9.33,9.96.73,9.82.76,26.25,0,36.04-1.15,14.66-10.94,7.12-20.94,9.93l-41.44,78.1,44.01,85.18c8.32,2.68,19.8-4.17,20.94,8.64.88,9.99.74,27.88,0,37.97-.53,7.27-2.06,8.78-9.32,9.32-13.54,1-37.44,1.15-50.86,0-8.54-.73-9.64-4.63-13.08-11.36-7.6-14.86-16.24-32.09-22.72-47.36-3.24-7.63-5.44-16.51-8.86-23.93-.29-.64-.39-1.51-1.31-1.59-2.85,8.89-6.02,17.97-9.75,26.58-6.45,14.89-16.48,36.91-24.67,50.56-3.17,5.29-4.49,6.58-10.92,7.09-13.23,1.04-37.06,1.11-50.22,0-5.84-.5-8.07-2.86-8.65-8.71-.94-9.39-.78-27.76-.03-37.29,1.13-14.5,11.03-7.17,20.94-9.93l44.46-83.88-41.67-79.92c-7.83-1.25-19.44,3.81-20.51-7.47-.93-9.9-.88-29.95,0-39.9.53-6.06,2.87-7.54,8.69-8.03,13.2-1.12,38.31-1.13,51.5,0,6.39.54,8.38,2.59,11.35,7.94,7.74,13.93,17.77,34.74,23.8,49.49,2.56,6.27,3.9,13.09,6.36,19.35.27.67.24,1.55,1.24,1.64h0v.04ZM815.55,83.68h-19.29v156.18h9.97c2.62,0,4.59,5.12,4.82,7.4.93,9.23,1.03,31.36,0,40.49-.68,6.1-3.72,7.01-9.3,7.41-24.93,1.83-52.07-1.45-77.25,0-5.34-.45-8.03-1.75-8.66-7.41-1.05-9.39-.83-30.27-.02-39.87.21-2.42,1.91-8.01,4.85-8.01h9.97V83.68h-19.29c.14,4.16.19,12.21-4.96,13.36-10.67-.68-23.57,1.38-33.97.15-4.66-.54-5.77-4.56-6.11-8.67-1.63-19.1,1.29-40.48,0-59.82.56-6.66,2.87-8.22,9.32-8.69h175.66c6.05-.1,8.71,2.93,9.29,8.71,1.9,18.83-1.41,40.64.03,59.79-.35,4.1-1.46,8.12-6.11,8.67-10.4,1.23-23.3-.83-33.97-.15-5.49-1.99-5.05-8.49-4.96-13.36h-.02,0Z"/></svg>