<?xml version="1.0" encoding="UTF-8"?>
<svg id="Layer_1" xmlns="http://www.w3.org/2000/svg" version="1.1" viewBox="0 0 119.2 89.91">
  <defs>
    <style>
      .st0 { fill: #e1261d; }
    </style>
  </defs>
  <g>
    <path d="M9.75,60.13h.81v.81c.29-.29.59-.59.88-.74.29-.15.66-.22,1.03-.22.74,0,1.25.29,1.62.81.37.51.51,1.25.51,2.21s0,.88-.15,1.25c-.07.37-.22.66-.44.96-.22.29-.44.44-.66.59-.29.15-.59.22-.96.22s-.44,0-.59-.07c-.22,0-.37-.15-.51-.22-.15-.07-.22-.15-.37-.29-.07-.07-.15-.15-.22-.22v2.87h-.88v-7.87s-.07-.07-.07-.07ZM10.93,64.61c.07.07.22.22.37.29s.29.15.44.22c.15,0,.29.07.51.07.44,0,.81-.15,1.1-.51s.37-.88.37-1.54-.15-1.25-.37-1.62-.59-.59-1.03-.59-.29,0-.51.07c-.15,0-.29.15-.44.22s-.29.22-.37.29c-.15.07-.22.22-.29.29v2.5s.15.15.22.22v.07Z"/>
    <path d="M17.1,60.35c.22-.22.44-.29.74-.29h.51v.96h-.51c-.15,0-.22,0-.37.07-.15,0-.22.15-.29.22-.07.07-.15.22-.22.29s-.15.22-.15.29v3.97h-.88v-5.73h.74v.88c.22-.29.37-.51.59-.66h-.15Z"/>
    <path d="M19.24,58.22c.15-.07.22-.15.44-.15s.29,0,.44.15c.15.07.15.22.15.44s0,.29-.15.37-.22.15-.44.15-.29,0-.44-.15c-.15-.07-.15-.22-.15-.37s0-.29.15-.44ZM19.16,65.86v-5.73h.88v5.73h-.88Z"/>
    <path d="M22.32,61.01c.22-.29.51-.51.81-.66.29-.22.66-.29,1.03-.29s.59,0,.81.15c.22.07.37.22.51.44s.22.44.29.66c0,.22.07.51.07.88v3.75h-.88v-3.53c0-.51-.07-.88-.22-1.1s-.44-.37-.74-.37-.37,0-.51.07c-.15,0-.29.15-.44.22-.15.07-.22.22-.37.29-.07.07-.15.22-.22.22v4.12h-.88v-5.73h.81v.81s-.07.07-.07.07Z"/>
    <path d="M28.13,64.69c0,.22,0,.29.15.37.07,0,.15.07.29.07h.22s.15,0,.22-.07v.74c-.22.15-.51.22-.81.22-.66,0-.96-.37-.96-1.1v-3.97h-.66v-.59l.66-.15.15-1.62h.81v1.54h.88v.81h-.88v3.75h-.07,0Z"/>
    <path d="M33.35,65.86v-.96c-.29.37-.51.66-.81.81-.29.22-.66.29-1.1.29s-.88-.15-1.18-.44c-.29-.29-.44-.66-.44-1.25s0-.44.15-.66c.07-.22.22-.44.37-.59.22-.15.44-.29.81-.44.29-.07.74-.15,1.25-.15s.29,0,.44,0h.44v-.59c0-.44-.07-.74-.29-.96-.22-.22-.51-.29-.88-.29s-.59,0-.88.15c-.22.07-.51.29-.74.44l-.44-.59c.29-.29.59-.44.96-.66.37-.15.74-.22,1.1-.22s.59,0,.81.15c.22.07.44.22.66.37.15.15.29.37.44.66.07.22.15.59.15.96v3.82h-.74l-.07.15ZM32.84,63.29h-.51c-.59,0-.96.07-1.25.29s-.37.44-.37.81.07.51.22.66c.15.15.44.22.74.22s.44,0,.59-.15c.15-.07.29-.22.44-.44.15-.15.22-.37.29-.59.07-.22.15-.37.15-.59v-.22h-.29Z"/>
    <path d="M35.41,58h.88v2.94c.22-.29.44-.51.74-.66s.59-.22,1.03-.22c.74,0,1.25.29,1.62.81.37.51.59,1.25.59,2.21s0,.88-.15,1.25c-.07.37-.22.66-.44.96s-.44.44-.74.59c-.29.15-.66.22-1.03.22s-.44,0-.59-.07c-.15,0-.37-.15-.51-.22-.15-.07-.29-.22-.37-.29s-.15-.22-.22-.29v.74h-.81v-7.94h0ZM36.59,64.61c.07.07.22.22.37.29s.29.15.44.22c.15,0,.29.07.51.07.44,0,.81-.15,1.03-.51s.37-.88.37-1.62-.15-1.25-.37-1.62-.59-.51-1.03-.51-.37,0-.51.07c-.15,0-.29.15-.44.22-.15.07-.22.22-.37.29-.07.07-.22.22-.29.29v2.5s.15.15.22.29h.07,0Z"/>
    <path d="M41.44,58h.88v7.87h-.88v-7.87Z"/>
    <path d="M47.03,65.79c-.37.15-.74.22-1.1.22-.81,0-1.4-.22-1.84-.74s-.66-1.25-.66-2.21,0-.88.15-1.25.29-.66.51-.96c.22-.22.51-.44.81-.59.29-.15.66-.22,1.03-.22.74,0,1.25.22,1.62.66s.59,1.18.59,2.06v.51h-3.68c0,.29,0,.51.07.74,0,.22.15.44.29.59.15.15.29.29.51.37s.44.15.74.15.59,0,.81-.15c.22-.07.51-.22.81-.44l.37.66c-.29.29-.59.44-.96.59,0,0-.07,0-.07,0ZM47.1,61.89c0-.22-.15-.37-.22-.51s-.22-.29-.37-.37-.37-.15-.59-.15-.51,0-.74.22c-.22.15-.37.29-.44.44-.15.22-.22.37-.22.59s-.07.37-.07.51h2.79c0-.22,0-.44-.07-.66l-.07-.07h0Z"/>
    <path d="M52.54,64.69c0,.22,0,.29.15.37.07,0,.15.07.29.07h.22s.15,0,.22-.07v.74c-.22.15-.51.22-.81.22-.66,0-.96-.37-.96-1.1v-3.97h-.66v-.59l.74-.15.15-1.62h.81v1.54h.88v.81h-.88v3.75h-.15Z"/>
    <path d="M57.61,65.79c-.37.15-.74.22-1.1.22-.81,0-1.4-.22-1.84-.74s-.66-1.25-.66-2.21,0-.88.15-1.25.29-.66.51-.96c.22-.22.51-.44.81-.59.29-.15.66-.22,1.03-.22.74,0,1.25.22,1.62.66s.59,1.18.59,2.06v.51h-3.68c0,.29,0,.51.07.74,0,.22.15.44.29.59.15.15.29.29.51.37s.44.15.74.15.59,0,.81-.15c.22-.07.51-.22.81-.44l.37.66c-.29.29-.59.44-.96.59,0,0-.07,0-.07,0ZM57.76,61.89c0-.22-.15-.37-.22-.51s-.22-.29-.37-.37-.37-.15-.59-.15-.51,0-.74.22c-.22.15-.37.29-.44.44-.15.22-.22.37-.22.59s-.07.37-.07.51h2.79c0-.22,0-.44-.07-.66l-.07-.07h0Z"/>
    <path d="M59.23,60.13h1.03l1.32,2.21,1.32-2.21h.96l-1.76,2.87,1.84,2.87h-.96l-1.4-2.28-1.4,2.28h-.96l1.84-2.87-1.84-2.87h0Z"/>
    <path d="M66.14,64.69c0,.22,0,.29.15.37.07,0,.15.07.29.07h.22s.15,0,.22-.07v.74c-.22.15-.51.22-.81.22-.66,0-.96-.37-.96-1.1v-3.97h-.66v-.59l.66-.15.15-1.62h.81v1.54h.88v.81h-.88v3.75h-.07,0Z"/>
    <path d="M68.13,58.22c.15-.07.22-.15.44-.15s.29,0,.44.15c.15.07.15.22.15.44s0,.29-.15.37-.22.15-.44.15-.29,0-.44-.15c-.15-.07-.15-.22-.15-.37s0-.29.15-.44ZM68.05,65.86v-5.73h.88v5.73h-.88Z"/>
    <path d="M70.33,58h.88v7.87h-.88v-7.87Z"/>
    <path d="M75.99,65.79c-.37.15-.74.22-1.1.22-.81,0-1.4-.22-1.84-.74s-.66-1.25-.66-2.21,0-.88.15-1.25.29-.66.51-.96c.22-.22.51-.44.81-.59.29-.15.66-.22,1.03-.22.74,0,1.25.22,1.62.66s.59,1.18.59,2.06v.51h-3.68c0,.29,0,.51.07.74,0,.22.15.44.29.59.15.15.29.29.51.37s.44.15.74.15.59,0,.81-.15c.22-.07.51-.22.81-.44l.37.66c-.29.29-.59.44-.96.59,0,0-.07,0-.07,0ZM76.14,61.89c0-.22-.15-.37-.22-.51s-.22-.29-.37-.37-.37-.15-.59-.15-.51,0-.74.22c-.22.15-.37.29-.44.44-.15.22-.22.37-.22.59s-.07.37-.07.51h2.79c0-.22,0-.44-.07-.66l-.07-.07h0Z"/>
    <path d="M79.01,64.98c.29.15.59.22.88.22s.66-.07.88-.22c.22-.15.29-.37.29-.59v-.37c0-.07-.07-.22-.22-.22-.07,0-.22-.15-.37-.22-.15,0-.37-.15-.59-.22-.59-.15-1.03-.37-1.32-.59-.29-.22-.44-.59-.44-1.03s.15-.96.51-1.25.81-.44,1.4-.44,1.47.29,1.98.81l-.44.59c-.22-.22-.51-.37-.74-.51-.29-.07-.51-.15-.81-.15s-.59,0-.81.22c-.15.15-.29.29-.29.59s0,.22.07.29c0,.07.15.22.22.22.15,0,.22.15.44.22.15,0,.37.15.59.22.59.15,1.03.37,1.32.59.29.22.44.59.44,1.1s-.22.96-.59,1.32c-.37.29-.88.44-1.47.44s-.88-.07-1.25-.29-.66-.37-.96-.66l.44-.59c.29.22.59.37.88.51h-.07,0Z"/>
    <path d="M88.93,65.79c-.37.22-.81.29-1.25.29s-.66,0-.96-.15c-.29-.07-.51-.29-.74-.44-.22-.22-.37-.44-.44-.74-.15-.29-.15-.59-.15-.96,0-.59.15-1.03.44-1.4.29-.37.74-.74,1.25-1.03-.22-.22-.44-.51-.59-.81-.15-.29-.22-.59-.22-.88s0-.44.15-.66c.07-.22.22-.37.37-.51s.29-.29.51-.37.44-.15.74-.15.44,0,.66.07c.22.07.37.22.51.29.15.15.29.29.37.51s.15.44.15.66c0,.44-.15.81-.37,1.1s-.59.59-.96.81l.88,1.1,1.25-1.1.51.59-1.25,1.1,1.76,2.13-.66.59-.88-1.03c-.37.37-.74.66-1.1.81v.15h0ZM88.71,64.98c.29-.15.51-.37.81-.66l-1.91-2.43c-.88.37-1.32.96-1.32,1.84s0,.44.15.59c.07.22.15.37.29.51s.29.22.51.29.44.15.66.15.59-.07.88-.22l-.07-.07h0ZM87.9,60.94c.37-.22.66-.37.81-.59.15-.22.29-.44.29-.74s-.07-.44-.22-.59-.37-.22-.66-.22-.51.07-.66.22-.22.37-.22.66c0,.37.22.81.66,1.32,0,0,0-.07,0-.07Z"/>
    <path d="M10.93,77.4c0,.22,0,.29.15.37.07,0,.15.07.29.07h.22s.15,0,.22-.07v.74c-.22.15-.51.22-.81.22-.66,0-.96-.37-.96-1.1v-3.97h-.66v-.59l.66-.15.15-1.62h.81v1.54h.88v.81h-.88v3.75s-.07,0-.07,0Z"/>
    <path d="M14.09,72.99c.22-.22.44-.29.74-.29h.51v.96h-.51c-.15,0-.22,0-.37.07-.15,0-.22.15-.29.22s-.15.22-.22.29c-.07.07-.15.22-.15.29v3.97h-.88v-5.73h.74v.88c.22-.29.37-.51.59-.66h-.15Z"/>
    <path d="M19.38,78.58v-.96c-.29.37-.51.66-.81.81-.29.22-.66.29-1.1.29s-.88-.15-1.18-.44c-.29-.29-.44-.66-.44-1.25s0-.44.15-.66c.07-.22.22-.44.37-.59.22-.15.44-.29.81-.44.29-.07.74-.15,1.25-.15s.29,0,.44,0h.44v-.59c0-.44-.07-.74-.29-.96-.22-.22-.51-.29-.88-.29s-.59,0-.88.15c-.22.07-.51.29-.74.44l-.44-.59c.29-.29.59-.44.96-.66.37-.15.74-.22,1.1-.22s.59,0,.81.15c.22.07.44.22.66.37.15.15.29.37.44.66.07.29.15.59.15.96v3.82h-.74s-.07.15-.07.15ZM18.94,76.01h-.51c-.59,0-.96.07-1.25.29-.22.22-.37.44-.37.81s.07.51.22.66.44.22.74.22.44,0,.59-.15c.15-.07.29-.22.44-.44.15-.15.22-.37.29-.59.07-.22.15-.37.15-.59v-.22h-.29Z"/>
    <path d="M22.32,73.65c.22-.29.51-.51.81-.66.29-.22.66-.29,1.03-.29s.59,0,.81.15c.22.07.37.22.51.44s.22.44.29.66c0,.22.07.51.07.88v3.75h-.88v-3.53c0-.51-.07-.88-.22-1.1s-.44-.37-.74-.37-.37,0-.51.07c-.15,0-.29.15-.44.22-.15.07-.22.22-.37.29-.07.07-.15.22-.22.22v4.12h-.88v-5.73h.81v.81s-.07.07-.07.07Z"/>
    <path d="M27.99,77.7c.29.15.59.22.88.22s.66-.07.88-.22.29-.37.29-.59v-.37c0-.07-.07-.22-.22-.22-.07,0-.22-.15-.37-.22-.15,0-.37-.15-.59-.22-.59-.15-1.03-.37-1.32-.59-.29-.22-.44-.59-.44-1.03s.15-.96.51-1.25.81-.44,1.4-.44,1.47.29,1.98.81l-.44.59c-.22-.22-.51-.37-.74-.51-.29-.07-.51-.15-.81-.15s-.59,0-.81.22c-.15.15-.29.29-.29.59s0,.22.07.29c0,.07.15.22.22.22.15,0,.22.15.44.22.15,0,.37.15.59.22.59.15,1.03.37,1.32.59.29.22.44.59.44,1.1s-.22.96-.59,1.32c-.37.29-.88.44-1.47.44s-.88-.07-1.25-.29c-.37-.22-.74-.37-.96-.66l.44-.59c.29.22.59.37.88.51h-.07,0Z"/>
    <path d="M31.74,73.65v-.59l.66-.15v-.74c0-.22,0-.44.07-.59,0-.22.15-.37.22-.51.15-.15.22-.22.44-.29.15-.07.37-.15.59-.15s.51,0,.74.07v.74h-.59c-.15,0-.29,0-.44.15-.15.07-.15.29-.15.59v.74h.96v.81h-.96v4.93h-.88v-4.93h-.66v-.07h0Z"/>
    <path d="M38.2,78.51c-.37.15-.74.22-1.1.22-.81,0-1.4-.22-1.84-.74s-.66-1.25-.66-2.21,0-.88.15-1.25.29-.66.51-.96c.22-.22.51-.44.81-.59.29-.15.66-.22,1.03-.22.74,0,1.25.22,1.62.66.37.44.59,1.18.59,2.06v.44h-3.68c0,.29,0,.51.07.74,0,.22.15.44.29.59s.29.29.51.37.44.15.74.15.59,0,.81-.15c.22-.07.51-.22.81-.44l.37.66c-.29.29-.59.44-.96.59l-.07.07ZM38.35,74.54c0-.22-.15-.37-.22-.51s-.22-.29-.37-.37-.37-.15-.59-.15-.51,0-.74.22c-.22.15-.37.29-.44.44-.15.22-.22.37-.22.59s-.07.37-.07.51h2.79c0-.22,0-.44-.07-.66l-.07-.07h0Z"/>
    <path d="M41.73,72.99c.22-.22.44-.29.74-.29h.51v.96h-.51c-.15,0-.22,0-.37.07-.15,0-.22.15-.29.22-.07.07-.15.22-.22.29-.07.07-.15.22-.15.29v3.97h-.88v-5.73h.74v.88c.15-.29.37-.51.59-.66h-.15Z"/>
    <path d="M46,72.85h.81v.81c.29-.29.59-.59.88-.74s.66-.22,1.03-.22c.74,0,1.25.29,1.62.81.37.51.51,1.25.51,2.21s0,.88-.15,1.25c-.07.37-.22.66-.44.96-.22.29-.44.44-.74.59s-.59.22-.96.22-.44,0-.59-.07c-.22,0-.37-.15-.51-.22s-.22-.15-.37-.29c-.07-.07-.15-.15-.22-.22v2.87h-.88v-7.94h0ZM47.17,77.26c.07.07.22.22.37.29.15.07.29.15.44.22.15,0,.29.07.51.07.44,0,.81-.15,1.1-.51s.37-.88.37-1.54-.15-1.25-.37-1.62-.59-.59-1.03-.59-.29,0-.51.07c-.15,0-.29.15-.44.22-.15.07-.29.22-.37.29-.15.07-.22.22-.29.29v2.5c0,.07.15.22.22.29h0Z"/>
    <path d="M53.28,72.99c.22-.22.44-.29.74-.29h.51v.96h-.51c-.15,0-.22,0-.37.07-.15,0-.22.15-.29.22-.07.07-.15.22-.22.29-.07.07-.15.22-.15.29v3.97h-.88v-5.73h.74v.88c.15-.29.37-.51.59-.66h-.15Z"/>
    <path d="M55.41,70.86c.15-.07.22-.15.44-.15s.29,0,.44.15c.15.07.15.22.15.44s0,.29-.15.37-.22.15-.44.15-.29,0-.44-.15c-.15-.07-.15-.22-.15-.37s0-.29.15-.44ZM55.41,78.58v-5.73h.88v5.73h-.88Z"/>
    <path d="M58.5,73.65c.22-.29.51-.51.81-.66.29-.22.66-.29,1.03-.29s.59,0,.81.15c.22.07.37.22.51.44s.22.44.29.66c0,.22.07.51.07.88v3.75h-.88v-3.53c0-.51-.07-.88-.22-1.1s-.44-.37-.74-.37-.37,0-.51.07c-.15,0-.29.15-.44.22-.15.07-.22.22-.37.29-.07.07-.15.22-.22.22v4.12h-.88v-5.73h.81v.81s-.07.07-.07.07Z"/>
    <path d="M64.38,77.4c0,.22,0,.29.15.37.07,0,.15.07.29.07h.22s.15,0,.22-.07v.74c-.22.15-.51.22-.81.22-.66,0-.96-.37-.96-1.1v-3.97h-.66v-.59l.66-.15.15-1.62h.81v1.54h.88v.81h-.88v3.75h-.07,0Z"/>
    <path d="M66.29,70.86c.15-.07.22-.15.44-.15s.29,0,.44.15c.15.07.15.22.15.44s0,.29-.15.37-.22.15-.44.15-.29,0-.44-.15c-.15-.07-.15-.22-.15-.37s0-.29.15-.44ZM66.29,78.58v-5.73h.88v5.73h-.88Z"/>
    <path d="M69.38,73.65c.22-.29.51-.51.81-.66.29-.22.66-.29,1.03-.29s.59,0,.81.15c.22.07.37.22.51.44s.22.44.29.66c0,.22.07.51.07.88v3.75h-.88v-3.53c0-.51-.07-.88-.22-1.1s-.44-.37-.74-.37-.37,0-.51.07c-.15,0-.29.15-.44.22-.15.07-.22.22-.37.29-.07.07-.15.22-.22.22v4.12h-.88v-5.73h.81v.81s-.07.07-.07.07Z"/>
    <path d="M78.71,79.54c-.07.29-.22.59-.44.74-.22.22-.44.29-.74.44-.29.07-.66.15-1.03.15s-.74,0-1.03-.07c-.29,0-.59-.15-.88-.22l.15-.81c.22.07.51.15.74.22.29.07.59.07.88.07s.51,0,.74-.07c.22,0,.37-.15.44-.29.15-.15.22-.29.22-.51v-1.25c-.22.22-.44.44-.74.66-.29.15-.66.22-1.03.22s-.74-.07-.96-.22c-.29-.15-.51-.37-.66-.59-.15-.29-.29-.59-.44-.96-.07-.37-.15-.74-.15-1.18s0-.81.15-1.18c.07-.37.22-.66.44-.96.22-.29.44-.51.74-.66s.59-.22,1.03-.22.44,0,.59.07c.15,0,.37.15.51.22s.29.22.37.29c.15.07.22.22.29.29v-.81h.81v5.51c0,.44,0,.81-.07,1.18l.07-.07h0ZM77.68,74.24c-.07-.07-.22-.22-.37-.29-.15-.07-.29-.15-.44-.22-.15,0-.29-.07-.51-.07-.51,0-.88.22-1.1.59s-.37.88-.37,1.54,0,.59.07.88c0,.29.15.44.22.66.15.22.29.29.44.44.15.07.44.15.66.15s.37,0,.51-.07c.15,0,.29-.15.44-.22.15-.07.22-.15.29-.29.07-.07.15-.22.22-.29v-2.5s-.15-.15-.22-.29c0,0,.15,0,.15,0Z"/>
    <path d="M83.34,73.65c.07-.15.22-.22.29-.37.15-.15.22-.22.37-.29.15-.07.29-.15.44-.22.15,0,.37-.07.51-.07.37,0,.66.07.88.29s.37.44.44.66c.22-.22.44-.44.74-.66.29-.22.59-.29,1.03-.29s.51,0,.74.15c.22.07.29.22.44.37.15.15.22.37.22.59v4.71h-.88v-3.82c0-.37,0-.66-.15-.88s-.29-.29-.66-.29-.29,0-.44.07c-.15,0-.29.15-.37.22-.15.07-.22.22-.29.29s-.15.15-.22.22v4.12h-.88v-3.75c0-.37,0-.66-.15-.88-.07-.22-.29-.29-.59-.29s-.29,0-.44.07c-.15,0-.29.15-.37.22s-.22.22-.29.29c-.07.07-.15.22-.22.22v4.12h-.88v-5.66h.81l.15.81-.22.07h0Z"/>
    <path d="M94.23,78.51c-.37.15-.74.22-1.1.22-.81,0-1.4-.22-1.84-.74s-.66-1.25-.66-2.21,0-.88.15-1.25.29-.66.51-.96c.22-.22.51-.44.81-.59.29-.15.66-.22,1.03-.22.74,0,1.25.22,1.62.66.37.44.59,1.18.59,2.06v.44h-3.68c0,.29,0,.51.07.74,0,.22.15.44.29.59s.29.29.51.37.44.15.74.15.59,0,.81-.15c.22-.07.51-.22.81-.44l.37.66c-.29.29-.59.44-.96.59l-.07.07ZM94.3,74.54c0-.22-.15-.37-.22-.51s-.22-.29-.37-.37-.37-.15-.59-.15-.51,0-.74.22c-.22.15-.37.29-.44.44-.15.22-.22.37-.22.59s-.07.37-.07.51h2.79c0-.22,0-.44-.07-.66l-.07-.07h0Z"/>
    <path d="M99.89,78.07c-.07.07-.22.22-.37.29-.15.07-.29.15-.51.22-.22,0-.44.07-.66.07-.37,0-.66,0-.96-.22-.29-.15-.51-.37-.74-.59-.15-.29-.29-.59-.44-.96-.07-.37-.15-.81-.15-1.25s0-.88.15-1.25.22-.66.44-.96c.22-.29.44-.44.74-.59s.59-.22.96-.22.74.07.96.22c.29.15.51.37.74.59v-2.87h.88v7.87h-.81v-.81c-.07.07-.15.22-.29.29l.07.15h0ZM99.81,74.24c-.07-.07-.22-.22-.37-.29-.15-.07-.29-.22-.44-.22s-.37-.07-.51-.07c-.44,0-.74.22-1.03.51-.22.37-.37.88-.37,1.54s0,.51.07.81c0,.22.15.44.22.66.15.22.29.37.44.44.22.15.44.22.74.22s.37,0,.51-.07c.15,0,.29-.15.44-.22.15-.07.22-.22.29-.29.07-.07.15-.22.22-.29v-2.35c-.07-.07-.15-.22-.22-.29v-.07h0Z"/>
    <path d="M102.46,70.86c.15-.07.22-.15.44-.15s.29,0,.44.15c.15.07.15.22.15.44s0,.29-.15.37-.22.15-.44.15-.29,0-.44-.15c-.15-.07-.15-.22-.15-.37s0-.29.15-.44ZM102.39,78.58v-5.73h.88v5.73h-.88Z"/>
    <path d="M107.83,78.58v-.96c-.29.37-.51.66-.81.81-.29.22-.66.29-1.1.29s-.88-.15-1.18-.44c-.29-.29-.44-.66-.44-1.25s0-.44.15-.66c.07-.22.22-.44.37-.59.22-.15.44-.29.81-.44.29-.07.74-.15,1.25-.15s.29,0,.44,0h.44v-.59c0-.44-.07-.74-.29-.96-.22-.22-.51-.29-.88-.29s-.59,0-.88.15c-.22.07-.51.29-.74.44l-.44-.59c.29-.29.59-.44.96-.66.37-.15.74-.22,1.1-.22s.59,0,.81.15c.22.07.44.22.66.37.15.15.29.37.44.66.07.22.15.59.15.96v3.82h-.74l-.07.15h0ZM107.39,76.01h-.51c-.59,0-.96.07-1.25.29-.22.22-.37.44-.37.81s.07.51.22.66.44.22.74.22.44,0,.59-.15c.15-.07.29-.22.44-.44.15-.15.22-.37.29-.59.07-.22.15-.37.15-.59v-.22h-.29Z"/>
    <path d="M110.77,83.92H8.14v.78h102.63v-.78Z"/>
    <path d="M110.77,53.19H8.14v.78h102.63v-.78Z"/>
  </g>
  <g>
    <path class="st0" d="M90.6,40.82c2,1,3.9,1.5,5.7,1.5s2.8-.4,3.6-1.1c.8-.7,1.3-1.7,1.3-3s-.1-1.2-.3-1.6c-.2-.5-.6-.9-1.2-1.3-.6-.4-1.4-.8-2.4-1.2-1-.4-2.3-.9-3.9-1.3-4.1-1.2-7.1-2.8-8.9-4.7-1.8-1.9-2.8-4.6-2.8-8s.4-4.2,1.1-5.8c.8-1.6,1.8-3,3.2-4.1,1.3-1.1,2.9-1.9,4.7-2.4,1.8-.5,3.7-.8,5.8-.8s5.3.5,7.7,1.5c2.5,1,4.7,2.5,6.7,4.4l-4.5,6.4c-1.5-1.2-3.1-2.1-4.7-2.8-1.7-.7-3.3-1.1-5-1.1s-2.6.3-3.5.9c-.9.6-1.3,1.5-1.3,2.7s.2,1.3.5,1.8.8.9,1.5,1.3,1.6.8,2.7,1.2c1.1.4,2.5.9,4.2,1.5,1.9.6,3.5,1.3,4.8,2s2.5,1.6,3.3,2.6c.9,1,1.5,2.1,1.9,3.4.4,1.3.6,2.7.6,4.4s-.3,4.1-1.1,5.8c-.7,1.7-1.7,3.2-3,4.4s-2.9,2.1-4.7,2.7c-1.8.6-3.9.9-6.2.9-3.3,0-6.3-.6-9.1-1.9-2.7-1.3-5.2-3.1-7.3-5.6l4.8-6.4c1.8,1.6,3.8,2.8,5.8,3.8,0,0,0-.1,0-.1Z"/>
    <path class="st0" d="M45.8,16.82V7.52h32.7v9.2h-11.6v33.3h-9.9V16.82h-11.2Z"/>
    <path class="st0" d="M9.3,16.82V7.52h32.7v9.2h-11.2v33.3h-9.9V16.82s-11.6,0-11.6,0Z"/>
  </g>
</svg>