<?xml version="1.0" encoding="UTF-8"?>
<svg id="Layer_1" xmlns="http://www.w3.org/2000/svg" version="1.1" viewBox="0 0 1652.25 420.86">
<!-- Generator: Adobe Illustrator 29.3.1, SVG Export Plug-In . SVG Version: 2.1.0 Build 151)  -->
<defs>
<style>
  .st0 { fill: #e5352c; }
  .st1 { fill: #1a171c; }
</style>
</defs>
<path class="st1" d="M1044.26,245.56h-23.67s-.01-10.05-.01-10.13c0-7.21,5.3-13.05,11.84-13.05s11.84,5.75,11.84,13.05c0,0,.01,10.13.01,10.13M1072.32,297.11v-66.53c0-11.67-3.76-21-11.28-28.01-7.22-6.73-16.75-10.21-28.56-10.49-11.82.27-21.34,3.76-28.56,10.49-7.52,7.01-11.28,16.35-11.28,28.01v66.53h28.07v-24.17h23.55v24.17h28.06Z"/>
<path class="st0" d="M1209.89,340.62v2.12l3.96-.89v-.47c0-3.47-1.47-4.32-4.94-4.32h-11.21c-3.7,0-4.95.94-4.95,4.69v2.21c0,3.76,1.25,4.7,4.95,4.7h12.23v4.56h-13.88v-2.35l-4.1.8v.56c0,3.71,1.21,4.69,4.95,4.69h12.27c3.74,0,4.9-.98,4.9-4.69v-2.73c0-3.76-1.16-4.7-4.9-4.7h-12.27v-4.19h12.99ZM1160.67,356.92h4.19v-13.38l15.98,13.38h3.16v-19.86h-4.14v13.2l-16.02-13.2h-3.16v19.86ZM1132.91,340.71h15.22v12.4h-15.22v-12.4ZM1128.32,341.75v10.48c0,3.75,1.16,4.69,4.9,4.69h14.59c3.7,0,4.91-.94,4.91-4.69v-10.48c0-3.8-1.21-4.69-4.91-4.69h-14.59c-3.7,0-4.9.89-4.9,4.69M1115.78,356.92h4.59v-19.86h-4.59v19.86ZM1100.69,340.62h9.15v-3.56h-22.84v3.56h9.1v16.3h4.59v-16.3ZM1063.3,337.05h-4.59v15.17c0,3.71,1.16,4.69,4.9,4.69h12.5c3.74,0,4.95-.98,4.95-4.69v-15.17h-4.63v16.16h-13.12v-16.16ZM1033.26,356.92h19.45v-3.7h-14.81v-16.16h-4.63v19.86ZM1005.5,340.71h15.22v12.4h-15.22v-12.4ZM1000.91,341.75v10.48c0,3.75,1.16,4.69,4.9,4.69h14.59c3.7,0,4.9-.94,4.9-4.69v-10.48c0-3.8-1.21-4.69-4.9-4.69h-14.59c-3.7,0-4.9.89-4.9,4.69M989.22,340.62v2.12l3.97-.89v-.47c0-3.47-1.47-4.32-4.95-4.32h-11.2c-3.7,0-4.95.94-4.95,4.69v2.21c0,3.76,1.25,4.7,4.95,4.7h12.23v4.56h-13.89v-2.35l-4.1.8v.56c0,3.71,1.21,4.69,4.95,4.69h12.28c3.74,0,4.9-.98,4.9-4.69v-2.73c0-3.76-1.16-4.7-4.9-4.7h-12.28v-4.19h12.99ZM942.15,340.71v2.12l4.5-.8v-.52c0-3.57-1.34-4.46-4.9-4.46h-13.66c-3.7,0-4.9.94-4.9,4.69v10.48c0,3.71,1.16,4.69,4.9,4.69h13.66c3.74,0,4.9-.98,4.9-4.69v-6.86h-12v3.52h7.5v4.23h-14.37v-12.41h14.37ZM891.86,356.92h4.19v-13.38l15.98,13.38h3.16v-19.86h-4.14v13.2l-16.02-13.2h-3.16v19.86ZM878.88,356.92h4.59v-19.86h-4.59v19.86ZM863.79,340.62h9.15v-3.56h-22.84v3.56h9.1v16.3h4.59v-16.3ZM823.35,356.92h4.6l2.36-4.37h12.49l2.36,4.37h5.17l-11.38-19.86h-4.42l-11.2,19.86ZM832.28,348.94l4.24-8.27,4.42,8.27h-8.65ZM799.08,356.92h20.48v-3.7h-15.84v-4.89h9.1v-3.42h-9.1v-4.33h15.62v-3.51h-20.25v19.86ZM767.04,356.92h4.63v-8.36h14.37v8.36h4.59v-19.86h-4.59v7.56h-14.37v-7.56h-4.63v19.86ZM715.55,356.92h3.7v-13.33l8.53,10.94h.89l8.44-11.27v13.66h4.28v-19.86h-3.7l-9.19,11.78-9.24-11.78h-3.7v19.86ZM687.79,340.71h15.22v12.4h-15.22v-12.4ZM683.2,341.75v10.48c0,3.75,1.16,4.69,4.9,4.69h14.59c3.7,0,4.9-.94,4.9-4.69v-10.48c0-3.8-1.2-4.69-4.9-4.69h-14.59c-3.7,0-4.9.89-4.9,4.69M668.56,340.62h9.15v-3.56h-22.84v3.56h9.1v16.3h4.59v-16.3ZM645.18,340.62v2.12l3.97-.89v-.47c0-3.47-1.47-4.32-4.95-4.32h-11.2c-3.7,0-4.95.94-4.95,4.69v2.21c0,3.76,1.25,4.7,4.95,4.7h12.23v4.56h-13.88v-2.35l-4.1.8v.56c0,3.71,1.2,4.69,4.95,4.69h12.28c3.74,0,4.9-.98,4.9-4.69v-2.73c0-3.76-1.16-4.7-4.9-4.7h-12.28v-4.19h12.99ZM601.58,337.05h-4.59v15.17c0,3.71,1.16,4.69,4.9,4.69h12.5c3.74,0,4.95-.98,4.95-4.69v-15.17h-4.64v16.16h-13.12v-16.16ZM584.81,340.71v3.67l4.63-.7v-1.93c0-3.76-1.21-4.69-4.95-4.69h-11.78c-3.75,0-4.9.98-4.9,4.69v10.48c0,3.66,1.11,4.69,4.9,4.69h11.78c3.74,0,4.95-.98,4.95-4.69v-2.35l-4.63-.98v4.23h-12.41v-12.41h12.41ZM518.54,352.69v-4.13l5.89-3.86,6.92,6.06-2.14,1.93h-10.67ZM519.8,356.92h8.21c1.92,0,2.86-.09,4.33-1.45l2.05-1.92,3.79,3.37h7l-7.27-6.43,5.31-4.65-3.03-2.77-5.35,4.7-10.84-9.49v-1.74h7.55v3.24l4.14-.75v-1.46c0-3.94-1.56-4.88-5.71-4.88h-4.65c-3.92,0-5.7.94-5.7,4.41v1.36c0,1.41.62,2.49,1.96,3.66l-4.68,2.96c-2.01,1.27-2.85,2.02-2.85,4.51v1.6c0,4.55,1.43,5.73,5.75,5.73M470.62,353.21v-12.6h8.12c4.37,0,6.56,1.93,6.56,6.06,0,5.17-2.9,6.53-8.75,6.53h-5.94ZM465.99,356.92h11.55c8.3,0,12.49-3.28,12.49-10,0-6.16-3.88-9.86-11.33-9.86h-12.71v19.86ZM452.02,340.48c1.38,0,2.1.28,2.1,1.6v2.3c0,1.32-.71,1.6-2.1,1.6h-10.49v-5.5h10.49ZM436.98,356.92h4.55v-7.51h4.33l7.9,7.51h6.6l-8.96-7.51h2.59c3.03,0,4.41-1.08,4.41-3.8v-4.7c0-2.77-1.38-3.84-4.41-3.84h-17v19.86ZM405.3,356.92h4.6l2.36-4.37h12.49l2.36,4.37h5.17l-11.38-19.86h-4.42l-11.2,19.86ZM414.22,348.94l4.24-8.27,4.42,8.27h-8.65ZM382.66,353.21v-12.6h8.12c4.37,0,6.56,1.93,6.56,6.06,0,5.17-2.9,6.53-8.75,6.53h-5.94ZM378.02,356.92h11.56c8.3,0,12.49-3.28,12.49-10,0-6.16-3.88-9.86-11.33-9.86h-12.72v19.86ZM346.25,356.92h4.19v-13.38l15.98,13.38h3.16v-19.86h-4.14v13.2l-16.02-13.2h-3.16v19.86ZM314.57,356.92h4.6l2.36-4.37h12.49l2.36,4.37h5.17l-11.38-19.86h-4.42l-11.2,19.86ZM323.49,348.94l4.24-8.27,4.42,8.27h-8.65ZM305.65,340.62h9.15v-3.56h-22.84v3.56h9.1v16.3h4.59v-16.3ZM282.27,340.62v2.12l3.97-.89v-.47c0-3.47-1.47-4.32-4.95-4.32h-11.2c-3.7,0-4.95.94-4.95,4.69v2.21c0,3.76,1.25,4.7,4.95,4.7h12.23v4.56h-13.88v-2.35l-4.1.8v.56c0,3.71,1.21,4.69,4.95,4.69h12.27c3.74,0,4.9-.98,4.9-4.69v-2.73c0-3.76-1.16-4.7-4.9-4.7h-12.27v-4.19h12.99Z"/>
<path class="st1" d="M1547.5,245.82c0,6.56-2.19,12.13-6.57,16.71-4.38,4.58-9.73,6.87-16.03,6.87s-11.53-2.3-15.96-6.91c-4.43-4.61-6.65-10.16-6.65-16.67s2.2-12.06,6.61-16.67c4.41-4.61,9.74-6.91,16-6.91s11.65,2.29,16.03,6.87c4.38,4.58,6.57,10.15,6.57,16.71M1578.73,245.82c0-14.72-5.19-27.36-15.58-37.92-10.39-10.56-22.84-15.84-37.36-15.84-15.32,0-28.27,5.21-38.86,15.62-10.59,10.41-15.88,23.13-15.88,38.15s5.26,27.56,15.77,38.07c10.51,10.51,23.2,15.77,38.07,15.77s27.69-5.23,38.15-15.7c10.46-10.46,15.69-23.18,15.69-38.15"/>
<rect class="st1" x="1436.2" y="194.6" width="30.49" height="102.5"/>
<path class="st1" d="M1314.52,245.82c0,6.56-2.19,12.13-6.57,16.71-4.38,4.58-9.73,6.87-16.03,6.87s-11.52-2.3-15.95-6.91c-4.43-4.61-6.65-10.16-6.65-16.67s2.21-12.06,6.61-16.67c4.41-4.61,9.74-6.91,16-6.91s11.65,2.29,16.03,6.87c4.38,4.58,6.57,10.15,6.57,16.71M1345.76,245.82c0-14.72-5.2-27.36-15.58-37.92-10.39-10.56-22.84-15.84-37.36-15.84-15.32,0-28.27,5.21-38.86,15.62-10.59,10.41-15.88,23.13-15.88,38.15s5.26,27.56,15.77,38.07c10.52,10.51,23.21,15.77,38.07,15.77s27.69-5.23,38.15-15.7c10.46-10.46,15.69-23.18,15.69-38.15"/>
<polygon class="st1" points="1217.01 224.04 1240.29 224.04 1240.29 194.6 1163.17 194.6 1163.17 224.04 1186.52 224.04 1186.52 297.11 1217.01 297.11 1217.01 224.04"/>
<rect class="st1" x="921.85" y="194.67" width="30.49" height="102.5"/>
<polygon class="st1" points="895.25 223.91 918.53 223.91 918.53 194.47 841.4 194.47 841.4 223.91 864.76 223.91 864.76 296.98 895.25 296.98 895.25 223.91"/>
<path class="st1" d="M725.81,245.82c0,6.56-2.19,12.13-6.57,16.71-4.38,4.58-9.73,6.87-16.03,6.87s-11.53-2.3-15.96-6.91c-4.43-4.61-6.65-10.16-6.65-16.67s2.2-12.06,6.61-16.67c4.41-4.61,9.74-6.91,16-6.91s11.65,2.29,16.03,6.87c4.38,4.58,6.57,10.15,6.57,16.71M757.05,245.82c0-14.72-5.19-27.36-15.58-37.92-10.39-10.56-22.84-15.84-37.36-15.84-15.32,0-28.27,5.21-38.86,15.62-10.59,10.41-15.88,23.13-15.88,38.15s5.26,27.56,15.77,38.07c10.51,10.51,23.2,15.77,38.07,15.77s27.69-5.23,38.15-15.7c10.46-10.46,15.69-23.18,15.69-38.15"/>
<path class="st1" d="M645.52,297.16v-65.48c0-12.77-3.25-22.55-9.75-29.36-6.5-6.81-15.88-10.21-28.13-10.21-9.56,0-17.6,2.18-24.2,6.41-6.08-4.22-13.88-6.41-23.52-6.41-12.31,0-22.16,3.5-29.56,10.51-7.4,7.01-11.1,16.35-11.1,28.01v66.53h32.3v-67.7h0s0,0,0-.01c0-3.96,3.12-7.18,6.97-7.18s6.97,3.21,6.97,7.18c0,0,0,0,0,.01h0v67.7h33.79v-67.7h0c0-3.97,3.12-7.19,6.97-7.19s6.97,3.21,6.97,7.18h0v67.71h32.29Z"/>
<path class="st1" d="M1585.78,197.79h1.93c1.05,0,2.38.2,2.38,1.5,0,1.47-.97,1.67-2.27,1.67h-2.04v-3.17ZM1583.49,207.97h2.29v-5.15h1.44l2.82,5.15h2.4l-3.09-5.27c1.71-.14,3.04-1,3.04-3.22,0-2.62-1.63-3.57-4.53-3.57h-4.36v12.05ZM1579.81,201.96c0-4.89,3.46-8.43,7.79-8.43s7.79,3.54,7.79,8.43-3.51,8.49-7.79,8.49-7.79-3.57-7.79-8.49M1577,201.96c0,6.56,5,10.79,10.6,10.79s10.6-4.23,10.6-10.79-5-10.73-10.6-10.73-10.6,4.2-10.6,10.73"/>
<polygon class="st0" points="150.89 76.54 440.43 87.01 358.48 232.77 50.6 252.69 150.89 76.54"/>
<polygon class="st0" points="55.58 259.2 359.24 241.2 487.91 297.11 103.83 296.72 55.58 259.2"/>
<path class="st1" d="M761.09,297.11v-66.53c0-11.67,3.76-21,11.28-28.01,7.24-6.75,16.8-10.24,28.67-10.49,11.87.25,21.43,3.74,28.67,10.49,7.52,7.01,11.28,16.35,11.28,28.01v66.53h-28.06s.01-61.62.01-61.68c0-7.21-5.3-13.05-11.84-13.05-.02,0-.04,0-.05,0s-.04,0-.05,0c-6.54,0-11.84,5.84-11.84,13.05,0,.06.01,61.68.01,61.68h-28.06Z"/>
<path class="st1" d="M1081.14,297.11v-66.53c0-11.67,3.76-21,11.28-28.01,7.24-6.75,16.8-10.24,28.67-10.49,11.86.25,21.43,3.74,28.67,10.49,7.52,7.01,11.28,16.35,11.28,28.01v66.53h-28.07s.01-61.62.01-61.68c0-7.21-5.3-13.05-11.84-13.05-.02,0-.03,0-.05,0s-.04,0-.06,0c-6.53,0-11.84,5.84-11.84,13.05,0,.06.01,61.68.01,61.68h-28.06Z"/>
<path class="st1" d="M1349.97,297.11v-66.53c0-11.67,3.76-21,11.28-28.01,7.24-6.75,16.8-10.24,28.67-10.49,11.86.25,21.43,3.74,28.67,10.49,7.52,7.01,11.28,16.35,11.28,28.01v66.53h-28.06s.01-61.62.01-61.68c0-7.21-5.3-13.05-11.84-13.05-.02,0-.03,0-.05,0s-.04,0-.06,0c-6.53,0-11.84,5.84-11.84,13.05,0,.06.01,61.68.01,61.68h-28.06Z"/>
</svg>