<?xml version="1.0" encoding="UTF-8"?>
<svg id="Layer_1" xmlns="http://www.w3.org/2000/svg" version="1.1" viewBox="0 0 1472.2 484.07">
<!-- Generator: Adobe Illustrator 29.3.1, SVG Export Plug-In . SVG Version: 2.1.0 Build 151)  -->
<defs>
<style>
  .st0 { fill: #939598; }
  .st1 { fill: #242021; }
  .st2 { fill: #765d70; }
  .st3 { fill: #fefefe; }
</style>
</defs>
<g>
<g>
  <path class="st2" d="M1043.99,85.5v48.27h-52.41v37.93l-55.16-8.27v-29.65h-53.1v-47.23c0-.07.96-1.03,1.03-1.03h159.63Z"/>
  <path class="st0" d="M990.89,187.56v120.67l-21.57-16.01c-10.46-7.17-21.23-13.85-32.22-20.19v-92.75l53.79,8.27Z"/>
  <g>
    <path class="st2" d="M1393.59,85.5l-.76,5.1-61.15,111.2c14.63,29.57,32.07,57.75,47.1,87.1,1.01,1.97,2.94,4.83,2.74,6.92-39.36-24.24-81.39-44.21-125.15-59.32-.2-1.16.34-2.03.76-3.02,3.63-8.52,10.68-17.5,14.57-26.13l.42-2.73-62.79-115.18c-.9-.89-.6-3.95.5-3.95h57.92l35.17,63.43,35.17-63.43h55.51Z"/>
    <path class="st2" d="M1193.62,85.5v48.27h-79.3v47.58h68.61c.07,0,1.03.96,1.03,1.03v30l-124.12-28.27v-98.61h133.77Z"/>
    <path class="st0" d="M1198.45,328.23l-85.19.03c-34.22-2.05-51.3-22.9-53.44-56.2l.03-72.09c34.84,6.43,69.34,14.66,103.58,23.64l19.85,6.01h-68.96v34.13c0,1.48,1.49,5.87,2.17,7.48,1.81,4.26,4.31,6.49,8.83,7.72,1.99.54,8.89,1.69,10.72,1.69h62.4v47.58Z"/>
    <polygon class="st0" points="1206.72 328.23 1207.1 324.82 1247.48 251.42 1249.08 250.32 1294.98 268.25 1262.23 328.23 1206.72 328.23"/>
    <path class="st0" d="M1339.46,328.23l-27.92-52.41c30.37,13.89,59.43,30.63,86.41,50.31l.47,2.1h-58.96Z"/>
  </g>
  <path class="st1" d="M988.82,328.23h-52.41v-37.93c3.32,1.18,6.58,3.38,9.6,5.23,15.11,9.27,30.11,20.37,42.81,32.7Z"/>
  <g>
    <polygon class="st1" points="869.53 257.89 869.53 328.23 815.05 328.23 815.05 239.97 869.53 257.89"/>
    <path class="st2" d="M869.53,155.15l-54.47-5.52v-64.13h53.44c.07,0,1.03.96,1.03,1.03v68.61Z"/>
    <polygon class="st0" points="869.53 171.01 869.53 240.65 815.05 223.42 815.05 165.49 869.53 171.01"/>
  </g>
</g>
<g>
  <g>
    <path class="st1" d="M486.14,328.23v-140.67c38.7,3.1,77.59,5.52,116.1,10.43,5.73.73,14.63,1.26,19.72,3.03,18.1,6.3,32.43,27.28,33.83,46.16,3.74,50.55-25.02,78.41-74.13,81.08l-95.53-.03ZM540.61,226.86v53.79c9.26-.36,18.66.49,27.92,0,10.35-.55,23.66-1.5,27.86-12.83,2.41-6.5,2.73-21.21.23-27.66-4.66-12.04-19.67-12.83-30.81-13.32-8.36-.37-16.83.33-25.2.03Z"/>
    <path class="st1" d="M346.16,181.35c.57,18.46-.77,37.09-.03,55.54.89,22.4,2.16,44.8,30,46.54,6.57.41,22.48-1.74,27.91-5.24,10.4-6.71,11.96-20.38,12.49-31.65.97-20.53-.78-41.83-.03-62.44l55.09,2.83c-.79,43.36,7.91,99.47-32.81,128.06-24.81,17.42-64.9,19.09-93.31,10.81-65.64-19.12-52.42-91.79-53.79-145.15l54.48.69Z"/>
  </g>
  <path class="st1" d="M125.5,319.95v-46.2c4.84-.12,9.47,2.25,14.19,3.4,20.38,4.96,43.8,8.92,64.68,5.48,10.44-1.72,19.56-10.04,20.45-20.92,2.51-30.36-28.61-30.84-50.03-38.28-21.39-7.43-40.09-20.81-46.53-43.46h83.78c1.23,0,20.48,6.72,23.27,7.76,27.74,10.38,44.79,28.09,46.75,58.75,2.16,33.83-9.58,62.59-42.1,75.87-16.51,6.74-51.43,9.72-69.28,7.93-15.14-1.52-30.6-6.23-45.18-10.33Z"/>
  <g>
    <path class="st2" d="M486.14,86.54c.23-.76,1.59-1.14,2.38-1.07,37.4,1.1,75.33-2.68,112.34,3.58,18.88,3.19,35.82,14.42,43.78,32.07.59,1.31,6.15,16.23,3.88,16.12l-162.38-6.91v-43.79Z"/>
    <path class="st2" d="M271.68,126.88l-142.06.34c5.97-16.57,19.73-27.92,35.4-34.93,12.59-5.63,24.21-8.13,38.05-8.84,22.78-1.16,47.28,1.25,68.6,9.3v34.13Z"/>
    <path class="st2" d="M471.66,129.64l-52.79-.65c-.71.15-2.38-.5-2.38-1.07v-41.37c0-.07.96-1.03,1.03-1.03h53.1c.07,0,1.03.96,1.03,1.03v43.1Z"/>
    <rect class="st2" x="291.68" y="85.5" width="54.47" height="42.06"/>
  </g>
  <g>
    <path class="st1" d="M801.26,328.23l-78.29.03c-33.97-2.03-51.51-22.95-53.44-56.2-1.23-21.06.97-43.32.03-64.5l54.38,9.75c.99,14.47-1.01,30.07.06,44.41.58,7.72,2.87,15.02,11.03,17.24,1.99.54,8.89,1.69,10.72,1.69h55.51v47.58Z"/>
    <polygon class="st2" points="724.03 85.5 724.03 142.05 669.56 137.91 669.56 85.5 724.03 85.5"/>
    <polygon class="st0" points="724.03 157.22 724.03 200.66 669.56 191.7 669.56 153.77 724.03 157.22"/>
  </g>
  <path class="st0" d="M650.25,152.39c-.1,12.25-2.68,25.87-12.23,34.37l-53.28-6.1c1.02-2.86,3.75-4.45,5.38-7.37,4-7.19,3.99-15.72,2.9-23.65l57.23,2.75Z"/>
  <polygon class="st0" points="540.61 147.56 540.61 175.84 486.14 171.7 486.14 146.19 540.61 147.56"/>
  <polygon class="st0" points="470.97 145.5 470.97 171.01 417.18 168.25 417.18 144.12 470.97 145.5"/>
  <path class="st0" d="M124.81,164.11c-1.25-6.83-.7-13.82,0-20.69,19.33.15,38.56-1.2,57.93-.68-1.76,7.4-2.05,14.14.69,21.37h-58.61Z"/>
  <rect class="st0" x="308.06" y="127.19" width="22.41" height="54.1" transform="translate(160.32 471.19) rotate(-89.15)"/>
</g>
</g>
<path class="st1" d="M985.37,395.46c-2.34,11.64-28.07,10.21-36.55,7.92.47-5.88,7.09-2.3,11.35-2.03,6.88.43,17.99-.11,16.92-9.68-8.75,6.84-36.91,3.8-31.74-11.41,3.42-10.07,25.64-11.09,33.12-5.14-1.13-5.47,2.86-2.97,6.9-3.45-.96,6.89,1.29,17.37,0,23.79ZM955.27,378.11c-13.07,13.53,27.41,21.23,21.69,1.63-1.82-6.24-17.69-5.78-21.69-1.63Z"/>
<path class="st1" d="M709.55,382.7v12.41h-8.27v-31.72c8.39-.86,32.62-2.85,37.14,5.95,2.92,5.67-2.85,9.83-7.7,11.43-1.68.55-7.64,1.93-9.1,1.93h-12.07ZM709.55,378.57c4.72,2.28,27.7-.81,20.01-9.33-1.24-1.37-6.95-3.08-8.64-3.08h-10.34c-.07,0-1.03.96-1.03,1.03v11.38Z"/>
<path class="st1" d="M184.8,361.33v13.79c6.29-4.78,23.02-5.59,27.48,1.83.27.45,1.48,3.16,1.48,3.34v14.83h-8.27v-14.83c0-.74-2.35-3.17-3.21-3.69-3.59-2.2-9.99-1.84-13.73-.15-.85.38-3.75,2.67-3.75,3.15v15.51h-8.27v-33.79h8.27Z"/>
<path class="st1" d="M447.97,376.74c7.79,8.45-1.08,15.92-9.52,17.92-9.95,2.37-32.68,1.64-30.19-13.64,1.89-11.59,32.56-12.03,39.71-4.28ZM424.59,375.28c-2.55.43-6.97,2.69-7.78,5.31-4.69,15.13,27.83,15.54,25.17,1.11-1.24-6.7-12.12-7.31-17.39-6.42Z"/>
<path class="st1" d="M261.34,384.77l-30.34-.69c.11,5.39,6.1,7.21,10.66,7.61,2.71.23,15.54-.81,16.23-.38.57.35,1.77,2.73,1.38,3.11-8.16,1.05-16.01,2.16-24.17.38-17.87-3.89-15.15-20.08,1.24-22.96,9.5-1.67,26.89-.67,25,12.93ZM253.76,381.32c-1-9.6-20.89-9.12-22.76,0h22.76Z"/>
<path class="st1" d="M672.32,384.78l-30.34-.69c.4,5.49,6.02,7.21,10.66,7.61,2.74.23,15.54-.83,16.23-.4.56.35,1.77,2.74,1.38,3.13-8.7,1.74-30.01,3.13-35.07-5.95-10.52-18.87,40.74-25.31,37.15-3.7ZM664.73,381.32c-1.25-9.85-20.31-8.92-22.76,0h22.76Z"/>
<path class="st1" d="M533.02,395.11c-2.05-.34-5.29.49-7.1.02-.78-.2-.76-1.83-1.56-2.03-.46-.12-7.19,2.29-9.11,2.51-4.73.55-17.83-.1-17.38-7,.54-8.37,20.32-8.06,26.19-8.67-.64-6.2-10.11-5.14-14.82-4.82-3.54.25-7.21,3.63-7.94-2.07,6.83-1.72,28.79-3.98,30.89,5.31,1.11,4.92-.9,11.6.83,16.75ZM524.75,383.39h-10c-1.83,0-8.44,2.09-8.66,4.52-.66,7.3,21.94,5.68,18.65-4.52Z"/>
<path class="st1" d="M897.8,371.67c3.49.24,7.93-1.56,7.94,3.45,6.59-4.74,23.96-5.74,28.51,1.82.27.45,1.48,3.16,1.48,3.34v14.83h-8.27v-14.14c0-6.6-12.87-6.79-17.42-4.32-1.03.56-3.96,3.42-3.96,4.32v14.14h-8.27v-23.44Z"/>
<path class="st1" d="M797.82,371.67c3.45.32,8.31-1.67,7.59,3.45,6.48-4.56,22.48-5.47,27.95.66.39.44,1.7,2.16,1.7,2.44v16.89h-8.27v-15.51c0-3.56-8.02-4.67-10.71-4.52-2.4.14-9.98,2.5-9.98,5.21v14.83h-8.27v-23.44Z"/>
<path class="st1" d="M361.33,371.67c1.21.21,6.53-.32,6.87.03.26.27-.34,2.81,1.06,3.4,5.86-4.68,20.83-5.02,26.53-.3.69.57,2.78,3.62,2.78,4.11v16.2h-8.27v-14.83c0-2.86-6.09-5.07-8.6-5.21s-12.09,1.69-12.09,4.52v15.51h-8.27v-23.44Z"/>
<path class="st1" d="M319.95,395.12h-8.28s-.69-23.44-.69-23.44c1.23.19,7.32-.28,7.59,0,.31.31-.5,3.48.35,3.46,6.79-4.65,23.62-5.74,28.61,1.72.33.5,1.38,2.43,1.38,2.75v15.51h-8.27v-14.83c0-2.86-6.09-5.07-8.6-5.21s-12.09,1.69-12.09,4.52v15.51Z"/>
<polygon class="st1" points="171.01 362.71 171.01 366.84 152.39 366.84 152.39 395.12 144.12 395.12 144.12 366.84 125.5 366.84 125.5 362.71 171.01 362.71"/>
<path class="st1" d="M474.42,390.29c3.87-2.59,9.59-16.57,12.41-18.27,1.71-1.03,6.13.01,8.27-.34.24,1.04-.38,1.51-.82,2.28-3.77,6.66-10.86,13.5-14.98,20.18-1.62,1.47-7.89,1.52-9.36.28-3.96-6.27-8.78-11.97-12.92-18.11-.48-.72-3.11-4.19-2.6-4.63,2.48.33,6.69-.79,8.66.64,1.08.78,9.15,13.44,10.53,15.68.43.69.78,1.47.81,2.3Z"/>
<path class="st1" d="M610.94,390.29c.03-.83.38-1.6.81-2.3,1.38-2.24,9.44-14.9,10.53-15.68,1.98-1.42,6.18-.3,8.66-.64l-16.21,22.75c-1.38,1.16-7.59,1.09-9.01.05l-14.83-20.34-.64-2.46,8.28.33,12.39,18.28Z"/>
<path class="st1" d="M546.13,375.12c-.27-.27-5.74.19-6.9,0v-3.05c.14-1.03,6.49.03,6.9-.4.29-.3-.35-3.71.03-4.11.29-.3,7.9-1.06,8.24-.73v4.83s11.03,0,11.03,0v3.45h-11.03v14.14c0,3.36,8.09,2.29,10.35,2.41.78,3.89-.93,3.88-4.49,4.13-3.28.23-10.06-.29-12.37-2.78-.27-.29-1.76-2.89-1.76-3.07,0-2.09.52-14.3,0-14.83Z"/>
<path class="st1" d="M858.15,375.12c-1.65.51-1.43,12.92-.27,14.75,1.83,2.9,7.36,1.49,10.28,1.79-.14.81.26,3.1-.04,3.42-1.35,1.42-11.96.45-14.32-.43-8.22-3.06-2.02-15.22-4.56-18.88-.89-1.27-4.99-.42-6.6-.64v-3.46c1.16-.19,6.64.27,6.9,0,.29-.3-.35-3.71.03-4.11.26-.27,7.25-1.02,7.55-.73v4.83s10.68,0,10.68,0c.91,0,1.26,2.55,1.03,3.45-2.78.53-8.36-.72-10.69,0Z"/>
<rect class="st1" x="290.3" y="362.71" width="8.27" height="32.41"/>
<path class="st1" d="M747.48,371.67c1.16.19,6.64-.27,6.9,0,.31.32-.51,3.45.35,3.46,4.86-3.08,9-4.07,14.82-3.46v4.14c-3.25-.98-13.79.94-13.79,5.17v14.14h-8.27v-23.44Z"/>
<path class="st1" d="M582.67,395.12h-8.96v-23.44c1.55.17,8.96-.65,8.96,1.03v22.41Z"/>
<rect class="st1" x="777.13" y="371.67" width="8.27" height="23.44"/>
<rect class="st1" x="877.11" y="371.67" width="8.27" height="23.44"/>
<path class="st1" d="M879.7,362.16c7.96-1.27,9.14,6.15,1.2,6.12-5.68-.02-7.35-5.13-1.2-6.12Z"/>
<path class="st1" d="M785.97,363.5c3.07,5.05-9.02,6.52-10.15,2.18-1.05-4.04,8.76-4.47,10.15-2.18Z"/>
<path class="st1" d="M577,362.15c6.61-.94,8.82,5.16,2"/>
</svg>